inDegrees=no
num_controls=7
num_derivatives=13
num_iterations=111
num_multipliers=7
num_parameters=0
num_slacks=7
num_states=26
objective=3.931451
objective_accelerations=0.504151
objective_balance=0.056778
objective_effort=0.452599
objective_height=2.878609
objective_ligament=0.039315
solver_duration=1183.749082
status=Solve_Succeeded
success=true
DataType=double
version=3
OpenSimVersion=4.4-2022-07-23-0e9fedc
endheader
time	/jointset/ground_pelvis/pelvis_tilt/value	/jointset/ground_pelvis/pelvis_tx/value	/jointset/ground_pelvis/pelvis_ty/value	/jointset/hip_l/hip_flexion_l/value	/jointset/hip_l/hip_adduction_l/value	/jointset/hip_l/hip_rotation_l/value	/jointset/back/lumbar_extension/value	/jointset/patellofemoral_l/patellar_flexion_l/value	/jointset/knee_l/knee_flexion_l/value	/jointset/knee_l/knee_adduction_l/value	/jointset/knee_l/knee_rotation_l/value	/jointset/ankle_l/ankle_angle_l/value	/jointset/subtalar_l/subtalar_angle_l/value	/jointset/ground_pelvis/pelvis_tilt/speed	/jointset/ground_pelvis/pelvis_tx/speed	/jointset/ground_pelvis/pelvis_ty/speed	/jointset/hip_l/hip_flexion_l/speed	/jointset/hip_l/hip_adduction_l/speed	/jointset/hip_l/hip_rotation_l/speed	/jointset/back/lumbar_extension/speed	/jointset/patellofemoral_l/patellar_flexion_l/speed	/jointset/knee_l/knee_flexion_l/speed	/jointset/knee_l/knee_adduction_l/speed	/jointset/knee_l/knee_rotation_l/speed	/jointset/ankle_l/ankle_angle_l/speed	/jointset/subtalar_l/subtalar_angle_l/speed	/forceset/tau_hip_flexion_l	/forceset/tau_hip_adduction_l	/forceset/tau_hip_rotation_l	/forceset/tau_knee_flexion_l	/forceset/tau_ankle_angle_l	/forceset/tau_subtalar_angle_l	/forceset/tau_lumbar_extension	lambda_cid13_p0	lambda_cid13_p1	lambda_cid13_p2	lambda_cid13_p3	lambda_cid13_p4	lambda_cid13_p5	lambda_cid14_p0	/jointset/ground_pelvis/pelvis_tilt/accel	/jointset/ground_pelvis/pelvis_tx/accel	/jointset/ground_pelvis/pelvis_ty/accel	/jointset/hip_l/hip_flexion_l/accel	/jointset/hip_l/hip_adduction_l/accel	/jointset/hip_l/hip_rotation_l/accel	/jointset/back/lumbar_extension/accel	/jointset/patellofemoral_l/patellar_flexion_l/accel	/jointset/knee_l/knee_flexion_l/accel	/jointset/knee_l/knee_adduction_l/accel	/jointset/knee_l/knee_rotation_l/accel	/jointset/ankle_l/ankle_angle_l/accel	/jointset/subtalar_l/subtalar_angle_l/accel	gamma_cid13_p0	gamma_cid13_p1	gamma_cid13_p2	gamma_cid13_p3	gamma_cid13_p4	gamma_cid13_p5	gamma_cid14_p0
1.5	-0.3808554517019395	-0.0477974219911024	0.7201277157564253	1.35854195827912	-0.302557216005564	0.06014911888636938	-0.3553843749831808	0.9822958266360077	0.9822958266359646	-0.1702444238715903	0.1744489896294043	0.1947584988265378	-0.01207612693984914	0.4959991091429558	0.1590646950857049	0.678546055105493	-2.548458508939527	-0.07958154071512448	-0.8938512381300949	0.5445720147902128	-2.491514403165224	-2.491514403165494	0.02873463314039719	0.000174507943510547	-0.5939751246408953	-0.1909705261591997	-0.2224443236244591	0.01142487538414316	-0.02480883291799768	-0.2714562745122022	0.1054429002607786	0.03528497393326578	0.2128397597117739	-4.157594071895699	-16.58543890412361	4.513829134853653	-5.852870059778255	-606.7304632916153	-56.90402771047471	-10.28188372392528	0.8492624526492734	0.7766893852475526	-0.475028033101465	-1.828158283133429	0.954962038634785	-0.4859917755171141	1.94596163353263	-1.842056607654797	-1.842056607654798	0.03505262747365404	0.01087852313321627	-0.9946665921397483	1.079971001854713	4.941077747381453e-07	3.816763242931038e-07	-3.356696508496596e-06	-4.233257336299597e-07	6.22444579118747e-07	-4.308900089521415e-07	5.358061106468428e-07
1.51	-0.3758532520117591	-0.04616799443872883	0.7268879634891001	1.332968591285993	-0.3033060965825821	0.0511900453878626	-0.3498424031996984	0.9572914395851245	0.9572914395851199	-0.1699598730134851	0.1744510517707086	0.1887697423404211	-0.01393305114823802	0.5043670990341559	0.1668104192024205	0.6733540281947309	-2.565871411395089	-0.0701557705993892	-0.8978598434678217	0.5637662614131254	-2.509011059651074	-2.509011059651319	0.02814986202266232	0.0002336085544322584	-0.6036505607735595	-0.1803823395222181	-0.2152881852386156	0.01159811969021355	-0.02504271349952493	-0.2678108032344468	0.1068730302714975	0.03549259658071943	0.2069413725254263	-3.36976327257489	-16.96262813282592	4.744241683917103	-6.191328196638047	-600.789278431503	-57.016425254906	-11.84816595383912	0.8195507211288602	0.7718651401593047	-0.5635800254609684	-1.646274598641049	0.9426926120980529	-0.3422846114333897	1.897744102761427	-1.650789859751707	-1.650789859747774	-0.1091012173920918	0.003502068910982738	-0.9351709682779856	1.053402997836555	5.247804597499002e-07	3.489184593516314e-07	-3.484742214635215e-06	-4.388078482879192e-07	6.389145470358779e-07	-3.747263643886525e-07	5.510967630235758e-07
1.52	-0.3707695757299124	-0.0444614394021329	0.7335918329515878	1.307231411593936	-0.3039594578356333	0.04219408789627504	-0.3441101713647685	0.9321226220312425	0.9321226220312777	-0.1696819417137488	0.17445372016589	0.182687993724088	-0.01568306138961376	0.5122944274762924	0.1744901919301762	0.6672704010680639	-2.58122104872559	-0.06047767592144727	-0.901228036746866	0.5826240250796693	-2.524400503764986	-2.524400503765204	0.02741072146512738	0.0002957587189271619	-0.6125735506841532	-0.1695877327565689	-0.2081320468527678	0.01177136399628819	-0.02527659408110812	-0.2641653319566857	0.1083031602822174	0.03570021922817844	0.2010429853390823	-2.585707318446317	-17.33876073448454	4.974036856237087	-6.553625582909206	-594.9321902774932	-57.22133425276296	-13.43057914885198	0.761130162836551	0.7634991074555538	-0.6533480762824085	-1.415505258121489	1.005426951076118	-0.3579093637806612	1.878665042258937	-1.420614133266987	-1.420614133266977	0.004178739513641927	0.01148843384784595	-0.8441773477256868	1.12125502758823	5.668770677788056e-07	4.10138848583557e-07	-3.629790194639273e-06	-4.498263452692072e-07	6.69746858061143e-07	-2.773721455318283e-07	5.782220662785057e-07
1.53	-0.3656088211701446	-0.0426784784978689	0.7402304884447668	1.281350982521544	-0.3045150879715964	0.03316773144216254	-0.3381912951875894	0.9068104619394226	0.9068104619394434	-0.169412574377671	0.1744570802260925	0.1765208092368003	-0.01732447050878879	0.5197748134566393	0.1820840471536302	0.6603180978904293	-2.594507187118424	-0.05061731934260636	-0.903930252566846	0.6010776223529807	-2.537664702190232	-2.537664702190344	0.02643599843335839	0.0003662929244888933	-0.6207256672663132	-0.1586717808367368	-0.2008611097864325	0.01170029428743044	-0.02543588985872806	-0.2606757070517102	0.1098278423651196	0.0357935946849659	0.1950181078699183	-1.781941571086484	-17.66099147234872	5.186399837884916	-6.871421712976137	-589.1660513490374	-57.39690806045331	-15.02520737588888	0.7292985363638504	0.7545455719866019	-0.7374132871334164	-1.23145601924084	0.9815014164595581	-0.2088803778024922	1.817668869459285	-1.22442867084852	-1.224428670832718	-0.1522998034361609	0.004126481093547279	-0.7800952441084194	1.080461889804237	6.21111594013433e-07	5.71211132874717e-07	-3.792903090625359e-06	-4.561022484690318e-07	7.158391586388005e-07	-1.362529414883359e-07	6.179216860915199e-07
1.54	-0.3603757016064276	-0.04082013567293104	0.7467953725364433	1.255348434487349	-0.3049710822607378	0.02411785229251254	-0.3320900906777589	0.8813766386686117	0.8813766386686195	-0.1691537546676891	0.1744610037417849	0.1702762302975614	-0.01885598078564081	0.5267674282661864	0.1895665760649458	0.6525161207676045	-2.605644841086323	-0.04055050655690516	-0.9059325758546586	0.6190896916099706	-2.548733139563284	-2.548733139563291	0.02530119624503102	0.0004084498173791831	-0.6280524410743635	-0.1476079642919625	-0.1935901727201009	0.01162922457857342	-0.02559518563640854	-0.2571860821467289	0.1113525244480225	0.03588697014175445	0.1889932304007508	-0.9819407314222425	-17.98339239903866	5.399740540002851	-7.213738470300563	-583.4880958841178	-57.67539615753312	-16.62745535459151	0.6635759286766109	0.7412338450278466	-0.8232828653204745	-0.9858083731348125	1.04671819244818	-0.217930857347144	1.790359438994654	-0.9814619228282934	-0.9814619228282881	-0.02783709179802932	0.005812971313547661	-0.6791087929037731	1.150827952576676	6.703365103965845e-07	7.408816988493967e-07	-3.929338191541354e-06	-4.555705502970165e-07	7.570097693953267e-07	1.448733843316895e-08	6.544126333241914e-07
1.55	-0.3550750999705986	-0.03888759874276012	0.7532780746792923	1.229245229324983	-0.3053256841680919	0.01505133924147136	-0.32581120327994	0.8558431624584798	0.8558431624585361	-0.1689073113995339	0.1744653636597416	0.1639625199461944	-0.02027646948447269	0.5332627836754088	0.1969139068450845	0.6438897975738488	-2.614621694679472	-0.03034882152219757	-0.9072546889114979	0.6365969046296376	-2.557579885368436	-2.557579885368436	0.02396370689415049	0.0004550519375330947	-0.6345435828339411	-0.136478938332276	-0.186264362796877	0.01136025075583211	-0.02568087274526365	-0.2538214328581089	0.1129029053959993	0.03580285704104355	0.1828887457736273	-0.1897851879398055	-18.21748406074448	5.587745355008674	-7.475759662664603	-577.9560428408259	-57.85534736857071	-18.2311831789639	0.6290669498816859	0.7273587173604652	-0.9023211342639905	-0.7973602332749965	1.010554290098808	-0.0714341916516941	1.717269734897874	-0.7790894302347584	-0.7790894302337831	-0.1902341127817377	0.00363549800475204	-0.6122148786607969	1.095882156297128	7.137894849943403e-07	9.204589806768267e-07	-4.035035832920072e-06	-4.471953114139685e-07	7.925097375318539e-07	1.763127709967311e-07	6.872066317142946e-07
1.56	-0.3497122344601098	-0.03688241330021702	0.7596705107726313	1.203063508350511	-0.3055775370988761	0.005975188527502447	-0.3193599702516355	0.8302326570861195	0.8302326570862274	-0.168674948876096	0.1744700999320294	0.1575882785749963	-0.02158527947598121	0.5392202031980936	0.2040962785393792	0.6344629108656414	-2.621348003507423	-0.02000071124281864	-0.9078601084403132	0.6535588177071071	-2.564138972008633	-2.564138972008628	0.02248504730132378	0.0004837206832239034	-0.6401586450405611	-0.1252722228272895	-0.1789385528736596	0.01109127693309073	-0.02576655985409896	-0.2504567835694921	0.1144532863439763	0.03571874394033255	0.1767842611464976	0.5974216455225689	-18.45280706968224	5.778345979123928	-7.75803969507577	-572.5317120409773	-58.14912747032183	-19.82827869770551	0.5559887513691196	0.7082420278590187	-0.9833955682108335	-0.5356994200952186	1.076003241382444	-0.07459215174237153	1.681299450555153	-0.5239300898375183	-0.5239300898375184	-0.05607114018725752	0.002226296420915764	-0.5038928823122953	1.166365861636641	7.618941792254662e-07	1.096937379843373e-06	-4.16189423450268e-06	-4.455207960023105e-07	8.377857307425859e-07	3.406510535419131e-07	7.222836951623814e-07
1.57	-0.3442924704068903	-0.03480629723744052	0.7659647944406648	1.176825666509862	-0.3057255087542064	-0.003103439662199274	-0.3127421097695097	0.8045679582153841	0.8045679582154673	-0.1684584227362738	0.1744750909143484	0.1511622393279329	-0.02278200107182007	0.544635582269846	0.2110921853853883	0.6242692221889139	-2.625831032297415	-0.00958307342234465	-0.9077460840496976	0.6699042266794888	-2.568401947341361	-2.568401947341378	0.02080042482723243	0.0005062133468426425	-0.6448934157102759	-0.1140713596086879	-0.1715666184139925	0.0106000312319682	-0.02579162828803442	-0.2473171492997887	0.11617816186021	0.03540389806636884	0.1706232021167731	1.418592593694904	-18.58407464282834	5.941165673584747	-8.001747429877843	-567.33851907988	-58.31824310429107	-21.41346586281058	0.5198401684070756	0.6899615022339782	-1.055859923122993	-0.3461006449629844	1.02673586819174	0.07300925904325367	1.594803814865113	-0.3178094461058151	-0.3178094461092247	-0.2275731837200158	0.001904087495672802	-0.4348930741132481	1.097353656694194	8.158135229983048e-07	1.269542175683814e-06	-4.315203586340153e-06	-4.522221849298898e-07	8.952817552960737e-07	5.081303985641199e-07	7.602145899329481e-07
